<svg width="12" height="15" viewBox="0 0 12 15" fill="none" xmlns="http://www.w3.org/2000/svg">
<path fill-rule="evenodd" clip-rule="evenodd" d="M3.43105 1.44828C3.43105 0.89124 3.88262 0.439667 4.43967 0.439667C4.99671 0.439667 5.44828 0.89124 5.44828 1.44828V5.01389C6.0417 4.67061 6.73067 4.47415 7.46552 4.47415C9.6937 4.47415 11.5 6.28044 11.5 8.50862V10.5259C11.5 12.754 9.6937 14.5603 7.46552 14.5603C5.93227 14.5603 4.59877 13.705 3.91614 12.4455L3.45321 11.8322L2.94888 11.2523L2.05947 10.2296C1.98013 10.1384 1.90923 10.0402 1.84764 9.93612L0.587584 7.80799C0.474549 7.61709 0.470679 7.38069 0.577405 7.18619C0.620634 7.1074 0.680276 7.03882 0.752297 6.98507L0.797705 6.95118C1.15145 6.68719 1.64535 6.72289 1.95745 7.035L3.43105 8.5086V1.44828Z" fill="white"/>
</svg>
