<svg width="53" height="53" viewBox="0 0 53 53" fill="none" xmlns="http://www.w3.org/2000/svg">
<g filter="url(#filter0_d_14_77)">
<mask id="path-1-outside-1_14_77" maskUnits="userSpaceOnUse" x="5.5" y="3.5" width="42" height="42" fill="black">
<rect fill="white" x="5.5" y="3.5" width="42" height="42"/>
<path fill-rule="evenodd" clip-rule="evenodd" d="M26.5 4.5C15.4543 4.5 6.5 13.4543 6.5 24.5C6.5 35.5457 15.4543 44.5 26.5 44.5C37.5457 44.5 46.5 35.5457 46.5 24.5C46.5 13.4543 37.5457 4.5 26.5 4.5ZM26.94 20.86H27.94H34.9C35.4523 20.86 35.9 21.3078 35.9 21.86V31.94C35.9 32.4923 35.4523 32.94 34.9 32.94L25.9518 32.94L25.946 32.9401L25.94 32.9401H19.7C19.1477 32.9401 18.7 32.4924 18.7 31.9401V31.94V21.86V21.2829L19.2007 20.9932C19.3468 20.9087 19.5162 20.86 19.7 20.86H26.94ZM17.7 21.86V21.8613V31.94V31.9401C17.7 33.0446 18.5954 33.9401 19.7 33.9401H25.94L25.9518 33.94H34.9C36.0046 33.94 36.9 33.0446 36.9 31.94V21.86C36.9 20.7555 36.0046 19.86 34.9 19.86H28.94H27.94V19.3001C27.94 18.1955 27.0446 17.3001 25.94 17.3001H19.7C18.5954 17.3001 17.7 18.1955 17.7 19.3001V20.1276V21.86ZM18.7 20.1276C18.9942 19.9574 19.3357 19.86 19.7 19.86H25.94H26.94V19.3001C26.94 19.1422 26.9034 18.9928 26.8382 18.86C26.6754 18.5284 26.3344 18.3001 25.94 18.3001H19.7C19.246 18.3001 18.8627 18.6026 18.7406 19.017C18.7142 19.1068 18.7 19.2018 18.7 19.3001V20.1276Z"/>
</mask>
<path fill-rule="evenodd" clip-rule="evenodd" d="M26.5 4.5C15.4543 4.5 6.5 13.4543 6.5 24.5C6.5 35.5457 15.4543 44.5 26.5 44.5C37.5457 44.5 46.5 35.5457 46.5 24.5C46.5 13.4543 37.5457 4.5 26.5 4.5ZM26.94 20.86H27.94H34.9C35.4523 20.86 35.9 21.3078 35.9 21.86V31.94C35.9 32.4923 35.4523 32.94 34.9 32.94L25.9518 32.94L25.946 32.9401L25.94 32.9401H19.7C19.1477 32.9401 18.7 32.4924 18.7 31.9401V31.94V21.86V21.2829L19.2007 20.9932C19.3468 20.9087 19.5162 20.86 19.7 20.86H26.94ZM17.7 21.86V21.8613V31.94V31.9401C17.7 33.0446 18.5954 33.9401 19.7 33.9401H25.94L25.9518 33.94H34.9C36.0046 33.94 36.9 33.0446 36.9 31.94V21.86C36.9 20.7555 36.0046 19.86 34.9 19.86H28.94H27.94V19.3001C27.94 18.1955 27.0446 17.3001 25.94 17.3001H19.7C18.5954 17.3001 17.7 18.1955 17.7 19.3001V20.1276V21.86ZM18.7 20.1276C18.9942 19.9574 19.3357 19.86 19.7 19.86H25.94H26.94V19.3001C26.94 19.1422 26.9034 18.9928 26.8382 18.86C26.6754 18.5284 26.3344 18.3001 25.94 18.3001H19.7C19.246 18.3001 18.8627 18.6026 18.7406 19.017C18.7142 19.1068 18.7 19.2018 18.7 19.3001V20.1276Z" fill="#D8D6FC"/>
<path d="M34.9 32.94L34.9 33.94H34.9V32.94ZM25.9518 32.94L25.9518 31.94L25.9459 31.94L25.9518 32.94ZM25.946 32.9401L25.9489 33.9401L25.9519 33.94L25.946 32.9401ZM25.94 32.9401V33.9401L25.9428 33.9401L25.94 32.9401ZM18.7 21.2829L18.1993 20.4173L17.7 20.7061V21.2829H18.7ZM19.2007 20.9932L19.7014 21.8588L19.2007 20.9932ZM25.94 33.9401V34.9401L25.9429 34.9401L25.94 33.9401ZM25.9518 33.94V32.94L25.9489 32.94L25.9518 33.94ZM27.94 19.86H26.94V20.86H27.94V19.86ZM18.7 20.1276H17.7V21.8613L19.2007 20.9932L18.7 20.1276ZM26.94 19.86V20.86H27.94V19.86H26.94ZM26.8382 18.86L25.9405 19.3006L25.9405 19.3007L26.8382 18.86ZM18.7406 19.017L19.6999 19.2996L19.6999 19.2996L18.7406 19.017ZM7.5 24.5C7.5 14.0066 16.0066 5.5 26.5 5.5V3.5C14.902 3.5 5.5 12.902 5.5 24.5H7.5ZM26.5 43.5C16.0066 43.5 7.5 34.9934 7.5 24.5H5.5C5.5 36.098 14.902 45.5 26.5 45.5V43.5ZM45.5 24.5C45.5 34.9934 36.9934 43.5 26.5 43.5V45.5C38.098 45.5 47.5 36.098 47.5 24.5H45.5ZM26.5 5.5C36.9934 5.5 45.5 14.0066 45.5 24.5H47.5C47.5 12.902 38.098 3.5 26.5 3.5V5.5ZM27.94 19.86H26.94V21.86H27.94V19.86ZM34.9 19.86H27.94V21.86H34.9V19.86ZM36.9 21.86C36.9 20.7555 36.0046 19.86 34.9 19.86V21.86H34.9H36.9ZM36.9 31.94V21.86H34.9V31.94H36.9ZM34.9 33.94C36.0046 33.94 36.9 33.0446 36.9 31.94H34.9V31.94V33.94ZM25.9518 33.94L34.9 33.94L34.9 31.94L25.9518 31.94L25.9518 33.94ZM25.9519 33.94L25.9577 33.94L25.9459 31.94L25.9401 31.9401L25.9519 33.94ZM25.9428 33.9401L25.9489 33.9401L25.9432 31.9401L25.9371 31.9401L25.9428 33.9401ZM19.7 33.9401H25.94V31.9401H19.7V33.9401ZM17.7 31.9401C17.7 33.0446 18.5954 33.9401 19.7 33.9401V31.9401H19.7H17.7ZM17.7 31.94V31.9401H19.7V31.94H17.7ZM17.7 21.86V31.94H19.7V21.86H17.7ZM17.7 21.2829V21.86H19.7V21.2829H17.7ZM18.7 20.1276L18.1993 20.4173L19.2007 22.1485L19.7014 21.8588L18.7 20.1276ZM19.7 19.86C19.3358 19.86 18.9943 19.9574 18.7 20.1276L19.7014 21.8588C19.7014 21.8588 19.7011 21.859 19.7006 21.8592C19.7 21.8595 19.6993 21.8597 19.6986 21.8599C19.6968 21.8604 19.6969 21.86 19.7 21.86V19.86ZM26.94 19.86H19.7V21.86H26.94V19.86ZM18.7 21.8613V21.86H16.7V21.8613H18.7ZM18.7 31.94V21.8613H16.7V31.94H18.7ZM18.7 31.9401V31.94H16.7V31.9401H18.7ZM19.7 32.9401C19.1477 32.9401 18.7 32.4924 18.7 31.9401H16.7C16.7 33.5969 18.0431 34.9401 19.7 34.9401V32.9401ZM25.94 32.9401H19.7V34.9401H25.94V32.9401ZM25.9489 32.94L25.9371 32.9401L25.9429 34.9401L25.9547 34.94L25.9489 32.94ZM34.9 32.94H25.9518V34.94H34.9V32.94ZM35.9 31.94C35.9 32.4923 35.4523 32.94 34.9 32.94V34.94C36.5568 34.94 37.9 33.5969 37.9 31.94H35.9ZM35.9 21.86V31.94H37.9V21.86H35.9ZM34.9 20.86C35.4523 20.86 35.9 21.3078 35.9 21.86H37.9C37.9 20.2032 36.5568 18.86 34.9 18.86V20.86ZM28.94 20.86H34.9V18.86H28.94V20.86ZM27.94 20.86H28.94V18.86H27.94V20.86ZM26.94 19.3001V19.86H28.94V19.3001H26.94ZM25.94 18.3001C26.4923 18.3001 26.94 18.7478 26.94 19.3001H28.94C28.94 17.6432 27.5968 16.3001 25.94 16.3001V18.3001ZM19.7 18.3001H25.94V16.3001H19.7V18.3001ZM18.7 19.3001C18.7 18.7478 19.1477 18.3001 19.7 18.3001V16.3001C18.0431 16.3001 16.7 17.6432 16.7 19.3001H18.7ZM18.7 20.1276V19.3001H16.7V20.1276H18.7ZM18.7 21.86V20.1276H16.7V21.86H18.7ZM19.7 18.86C19.1552 18.86 18.6415 19.0062 18.1993 19.262L19.2007 20.9932C19.3468 20.9087 19.5162 20.86 19.7 20.86V18.86ZM25.94 18.86H19.7V20.86H25.94V18.86ZM26.94 18.86H25.94V20.86H26.94V18.86ZM25.94 19.3001V19.86H27.94V19.3001H25.94ZM25.9405 19.3007L25.94 19.3001H27.94C27.94 18.9861 27.8669 18.6863 27.7359 18.4194L25.9405 19.3007ZM25.94 19.3001L25.9405 19.3006L27.7359 18.4194C27.4115 17.7585 26.7302 17.3001 25.94 17.3001V19.3001ZM19.7 19.3001H25.94V17.3001H19.7V19.3001ZM19.6999 19.2996L19.7 19.3001V17.3001C18.7906 17.3001 18.0253 17.9062 17.7814 18.7344L19.6999 19.2996ZM19.7 19.3001L19.6999 19.2996L17.7814 18.7344C17.7282 18.915 17.7 19.1051 17.7 19.3001H19.7ZM19.7 20.1276V19.3001H17.7V20.1276H19.7Z" fill="#8784D4" mask="url(#path-1-outside-1_14_77)"/>
</g>
<defs>
<filter id="filter0_d_14_77" x="0.5" y="0.5" width="52" height="52" filterUnits="userSpaceOnUse" color-interpolation-filters="sRGB">
<feFlood flood-opacity="0" result="BackgroundImageFix"/>
<feColorMatrix in="SourceAlpha" type="matrix" values="0 0 0 0 0 0 0 0 0 0 0 0 0 0 0 0 0 0 127 0" result="hardAlpha"/>
<feOffset dy="2"/>
<feGaussianBlur stdDeviation="2.5"/>
<feComposite in2="hardAlpha" operator="out"/>
<feColorMatrix type="matrix" values="0 0 0 0 0.529412 0 0 0 0 0.517647 0 0 0 0 0.831373 0 0 0 1 0"/>
<feBlend mode="normal" in2="BackgroundImageFix" result="effect1_dropShadow_14_77"/>
<feBlend mode="normal" in="SourceGraphic" in2="effect1_dropShadow_14_77" result="shape"/>
</filter>
</defs>
</svg>
