<svg width="24" height="25" viewBox="0 0 24 25" fill="none" xmlns="http://www.w3.org/2000/svg">
<g filter="url(#filter0_d_108_7)">
<path d="M6.61589 4.56059C7.32923 3.96062 8.37606 4.07451 8.95406 4.81498L9.58566 5.62413C10.1636 6.3646 10.0539 7.45125 9.34059 8.05123C8.97617 8.35774 8.6874 8.99041 8.96563 9.38237L11.24 12.5866C11.7336 13.2818 12.6864 13.4085 13.3328 12.8648C13.9587 12.3383 14.8773 12.4383 15.3845 13.0881L15.9834 13.8552C16.6442 14.7018 16.4992 15.9481 15.6632 16.6071C15.0559 17.0858 14.2285 17.131 13.5761 16.7211L10.3202 14.675C9.58354 14.2121 8.92967 13.6203 8.38756 12.9258L7.69013 12.0323C7.08625 11.2587 6.66204 10.3511 6.45037 9.37992C6.34798 8.9101 6.29631 8.4299 6.29633 7.9482L6.29637 7.38218C6.29638 7.09968 6.20826 6.82809 6.12101 6.55915C6.10826 6.51985 6.09552 6.4806 6.08309 6.44138C5.87342 5.78027 6.064 5.02478 6.61589 4.56059Z" fill="white"/>
<path d="M15.1813 10.2141C15.2663 10.2394 15.3555 10.1884 15.3749 10.0988C15.4633 9.69208 15.4668 9.26975 15.3845 8.86033C15.2913 8.39658 15.0908 7.96332 14.8003 7.59794C14.5098 7.23256 14.1381 6.94603 13.7171 6.76306C13.3455 6.60154 12.9453 6.52501 12.5439 6.53787C12.4554 6.5407 12.3903 6.62188 12.398 6.71334C12.4058 6.80481 12.4835 6.87188 12.572 6.86972C12.9216 6.86118 13.2697 6.92909 13.5934 7.06978C13.9664 7.23191 14.2959 7.48582 14.5533 7.80959C14.8107 8.13337 14.9883 8.51729 15.0709 8.92824C15.1426 9.28483 15.1408 9.65249 15.0664 10.0072C15.0475 10.0969 15.0962 10.1889 15.1813 10.2141Z" fill="white"/>
<path d="M17.8621 10.1945C17.8375 10.2991 17.7331 10.359 17.6334 10.3293C17.5336 10.2997 17.4763 10.1918 17.5006 10.0871C17.6545 9.42396 17.6651 8.73275 17.5306 8.06339C17.3833 7.33031 17.0664 6.64545 16.6072 6.06788C16.148 5.49031 15.5603 5.03737 14.8949 4.74816C14.2873 4.48407 13.6315 4.36372 12.975 4.39478C12.8714 4.39968 12.7802 4.3208 12.7711 4.21352C12.762 4.10624 12.8384 4.01122 12.942 4.00597C13.6593 3.96958 14.3762 4.0999 15.04 4.38842C15.7616 4.70208 16.399 5.19328 16.8969 5.81964C17.3949 6.44601 17.7386 7.18874 17.8984 7.98375C18.0453 8.71505 18.0326 9.4704 17.8621 10.1945Z" fill="white"/>
<path d="M14.3576 7.96517L14.5533 7.80959L14.3576 7.96517C14.59 8.25749 14.7509 8.60486 14.8258 8.97749C14.8908 9.30083 14.8892 9.63426 14.8217 9.95588C14.7797 10.1563 14.8846 10.3868 15.1101 10.4538C15.3334 10.5201 15.5687 10.3847 15.6192 10.1519C15.7149 9.71149 15.7187 9.25433 15.6296 8.81108C15.5287 8.309 15.3115 7.83919 14.996 7.44236C14.6805 7.04548 14.276 6.73336 13.8168 6.53378C13.4113 6.35758 12.9745 6.27395 12.5359 6.288C12.2857 6.29601 12.1307 6.51945 12.1489 6.73447C12.168 6.95992 12.3597 7.12498 12.5781 7.11965C12.8912 7.11199 13.2032 7.1728 13.4937 7.29906C13.8285 7.44458 14.1252 7.67289 14.3576 7.96517ZM17.2571 10.0306L17.5006 10.0871L17.2571 10.0306C17.206 10.2507 17.323 10.4979 17.5622 10.569C17.8013 10.64 18.0483 10.4946 18.1055 10.2518C18.2842 9.49274 18.2975 8.70105 18.1435 7.93449C17.976 7.10117 17.6156 6.32188 17.0926 5.66406C16.5696 5.0062 15.8995 4.48941 15.1396 4.15914C14.4406 3.85532 13.6853 3.71794 12.9294 3.75629C12.6692 3.76949 12.5023 4.00222 12.522 4.23464C12.5423 4.47445 12.7474 4.65582 12.9868 4.6445C13.6049 4.61526 14.2226 4.72854 14.7952 4.97744C15.4224 5.25004 15.9773 5.67738 16.4115 6.22346C16.8457 6.76957 17.1459 7.41788 17.2855 8.11264C17.413 8.74701 17.4029 9.40216 17.2571 10.0306ZM9.15113 4.66115C8.48716 3.81054 7.27819 3.67688 6.45497 4.36927C5.8213 4.90224 5.6063 5.76497 5.84478 6.51695C5.85751 6.55709 5.8705 6.59713 5.88321 6.63631C5.97271 6.91216 6.04638 7.14591 6.04637 7.38216L6.04633 7.94819C6.04631 8.44776 6.09989 8.94581 6.20611 9.43316C6.42565 10.4405 6.86579 11.3825 7.49306 12.1861L8.19049 13.0796C8.75021 13.7967 9.42566 14.4082 10.1872 14.8867L13.4431 16.9327C14.1854 17.3992 15.128 17.3473 15.818 16.8034C16.7637 16.058 16.9246 14.6548 16.1804 13.7014L15.5816 12.9342C14.9884 12.1743 13.9077 12.0546 13.1719 12.6735C12.6392 13.1215 11.8543 13.02 11.4439 12.4419L9.16949 9.23766C9.0949 9.13259 9.07958 8.97007 9.14895 8.7648C9.21733 8.5625 9.35445 8.36625 9.50151 8.24255C10.3191 7.55488 10.4424 6.31545 9.78273 5.4703L9.15113 4.66115Z" stroke="#8784D4" stroke-width="0.5"/>
</g>
<defs>
<filter id="filter0_d_108_7" x="0.500122" y="0.5" width="22.9999" height="24" filterUnits="userSpaceOnUse" color-interpolation-filters="sRGB">
<feFlood flood-opacity="0" result="BackgroundImageFix"/>
<feColorMatrix in="SourceAlpha" type="matrix" values="0 0 0 0 0 0 0 0 0 0 0 0 0 0 0 0 0 0 127 0" result="hardAlpha"/>
<feOffset dy="2"/>
<feGaussianBlur stdDeviation="2.5"/>
<feComposite in2="hardAlpha" operator="out"/>
<feColorMatrix type="matrix" values="0 0 0 0 0.529412 0 0 0 0 0.517647 0 0 0 0 0.831373 0 0 0 1 0"/>
<feBlend mode="normal" in2="BackgroundImageFix" result="effect1_dropShadow_108_7"/>
<feBlend mode="normal" in="SourceGraphic" in2="effect1_dropShadow_108_7" result="shape"/>
</filter>
</defs>
</svg>
